# xmcd
#
# Track frame offsets:
#   150
#   13247
#   24900
#   34677
#   48570
#   64525
#   77435
#   91785
#   104765
#   117037
#   131145
#   144860
#   159590
#   171712
#   189032
#   201282
#   222922
#   235720
#   251177
#   266542
#
# Disc length: 3689 seconds
#
# Revision: 0
# Processed by: cddbd v1.5.2PL0 Copyright (c) Steve Scherf et al.
# Submitted via: uFREEDB ActiveX Control 1.5
#
DISCID=110e6714
DTITLE=Pablo Coimbra - Melhor Violão latino
DYEAR=1999
DGENRE=Alternative
TTITLE0=Lamento Boricano
TTITLE1=La Cumparsita
TTITLE2=Noches del Paraguay
TTITLE3=Lo que quieres de mi
TTITLE4=Folhas verdes
TTITLE5=Ojos verdes
TTITLE6=Peleas (Brigas)
TTITLE7=Quizas, quizas quizas
TTITLE8=Qien sera
TTITLE9=La golondrina
TTITLE10=Siboney
TTITLE11=Mi primero amor
TTITLE12=Noche de ronda
TTITLE13=Estoy enamorado
TTITLE14=Amigos para siempre
TTITLE15=La paloma
TTITLE16=Arrajues mon amour
TTITLE17=Corazon gitano
TTITLE18=Czardas
TTITLE19=Chalana
EXTD=
EXTT0=
EXTT1=
EXTT2=
EXTT3=
EXTT4=
EXTT5=
EXTT6=
EXTT7=
EXTT8=
EXTT9=
EXTT10=
EXTT11=
EXTT12=
EXTT13=
EXTT14=
EXTT15=
EXTT16=
EXTT17=
EXTT18=
EXTT19=
PLAYORDER=
